<svg width="16" height="16" viewBox="0 0 16 16" fill="none" xmlns="http://www.w3.org/2000/svg">
<path d="M8.00003 0.888916C6.59359 0.888916 5.21872 1.30598 4.04931 2.08735C2.87989 2.86873 1.96844 3.97934 1.43022 5.27872C0.891997 6.57811 0.751173 8.00792 1.02556 9.38734C1.29994 10.7668 1.97721 12.0338 2.97172 13.0283C3.96622 14.0228 5.2333 14.7001 6.61272 14.9745C7.99214 15.2489 9.42195 15.1081 10.7213 14.5698C12.0207 14.0316 13.1313 13.1202 13.9127 11.9507C14.6941 10.7813 15.1111 9.40647 15.1111 8.00003C15.1111 6.11404 14.3619 4.3053 13.0283 2.97171C11.6948 1.63812 9.88601 0.888916 8.00003 0.888916ZM12.6445 5.61336L6.80447 11.4489L3.35559 8.00003C3.23771 7.88215 3.17149 7.72228 3.17149 7.55558C3.17149 7.38888 3.23771 7.22901 3.35559 7.11114C3.47346 6.99326 3.63333 6.92704 3.80003 6.92704C3.96673 6.92704 4.1266 6.99326 4.24447 7.11114L6.81336 9.68003L11.7645 4.73336C11.8228 4.67499 11.8921 4.6287 11.9684 4.59711C12.0446 4.56552 12.1264 4.54927 12.2089 4.54927C12.2915 4.54927 12.3732 4.56552 12.4495 4.59711C12.5257 4.6287 12.595 4.67499 12.6534 4.73336C12.7117 4.79173 12.758 4.86102 12.7896 4.93727C12.8212 5.01353 12.8375 5.09526 12.8375 5.1778C12.8375 5.26035 12.8212 5.34208 12.7896 5.41834C12.758 5.49459 12.7117 5.56388 12.6534 5.62225L12.6445 5.61336Z" fill="#D9EFE8"/>
</svg>
