<svg width="16" height="16" viewBox="0 0 16 16" fill="none" xmlns="http://www.w3.org/2000/svg">
<path d="M8.25 0.09375C10.2806 0.09375 12.228 0.900388 13.6638 2.33621C15.0996 3.77204 15.9062 5.71944 15.9062 7.75C15.9062 9.78056 15.0996 11.728 13.6638 13.1638C12.228 14.5996 10.2806 15.4062 8.25 15.4062C6.21944 15.4062 4.27204 14.5996 2.83621 13.1638C1.40039 11.728 0.59375 9.78056 0.59375 7.75C0.59375 5.71944 1.40039 3.77204 2.83621 2.33621C4.27204 0.900388 6.21944 0.09375 8.25 0.09375ZM8.25 6.82141L6.47156 5.04297C6.34842 4.91983 6.18141 4.85065 6.00727 4.85065C5.83312 4.85065 5.66611 4.91983 5.54297 5.04297C5.41983 5.16611 5.35065 5.33312 5.35065 5.50727C5.35065 5.68141 5.41983 5.84842 5.54297 5.97156L7.32141 7.75L5.54297 9.52844C5.482 9.58941 5.43363 9.66179 5.40063 9.74146C5.36763 9.82112 5.35065 9.90651 5.35065 9.99273C5.35065 10.079 5.36763 10.1643 5.40063 10.244C5.43363 10.3237 5.482 10.3961 5.54297 10.457C5.60394 10.518 5.67633 10.5664 5.75599 10.5994C5.83565 10.6324 5.92104 10.6494 6.00727 10.6494C6.09349 10.6494 6.17888 10.6324 6.25854 10.5994C6.33821 10.5664 6.41059 10.518 6.47156 10.457L8.25 8.67859L10.0284 10.457C10.0894 10.518 10.1618 10.5664 10.2415 10.5994C10.3211 10.6324 10.4065 10.6494 10.4927 10.6494C10.579 10.6494 10.6643 10.6324 10.744 10.5994C10.8237 10.5664 10.8961 10.518 10.957 10.457C11.018 10.3961 11.0664 10.3237 11.0994 10.244C11.1324 10.1643 11.1494 10.079 11.1494 9.99273C11.1494 9.90651 11.1324 9.82112 11.0994 9.74146C11.0664 9.66179 11.018 9.58941 10.957 9.52844L9.17859 7.75L10.957 5.97156C11.018 5.91059 11.0664 5.83821 11.0994 5.75854C11.1324 5.67888 11.1494 5.59349 11.1494 5.50727C11.1494 5.42104 11.1324 5.33565 11.0994 5.25599C11.0664 5.17633 11.018 5.10394 10.957 5.04297C10.8961 4.982 10.8237 4.93363 10.744 4.90063C10.6643 4.86763 10.579 4.85065 10.4927 4.85065C10.4065 4.85065 10.3211 4.86763 10.2415 4.90063C10.1618 4.93363 10.0894 4.982 10.0284 5.04297L8.25 6.82141Z" fill="#FB7777"/>
</svg>
